<svg width="30" height="30" xmlns="http://www.w3.org/2000/svg">

 <g>
  <title>background</title>
  <rect fill="none" id="canvas_background" height="602" width="802" y="-1" x="-1"/>
 </g>
 <g>
  <title>Layer 1</title>
  <path transform="rotate(-90 15.000000000000002,15.000000000000002) " id="svg_1" fill="black" d="m15,30c8.2863,0 15,-6.7137 15,-15c0,-8.28625 -6.7137,-15 -15,-15c-8.28625,0 -15,6.71375 -15,15c0,8.2863 6.71375,15 15,15zm-8.13625,-15.325l14.46255,-5.57625c0.6712,-0.2425 1.2574,0.16375 1.0399,1.17875l0.0013,-0.0013l-2.4625,11.6013c-0.1825,0.8225 -0.6713,1.0225 -1.355,0.635l-3.75,-2.7638l-1.8088,1.7426c-0.2,0.2 -0.3687,0.3687 -0.7562,0.3687l0.2663,-3.8162l6.95,-6.2788c0.3024,-0.2663 -0.0676,-0.4162 -0.4663,-0.1512l-8.5887,5.4074l-3.70255,-1.1549c-0.80375,-0.2551 -0.82125,-0.8038 0.17,-1.1913z"/>
 </g>
</svg>