<?xml version="1.0" encoding="UTF-8"?>
<svg xmlns="http://www.w3.org/2000/svg" xmlns:xlink="http://www.w3.org/1999/xlink" width="65pt" height="65pt" viewBox="0 0 65 65" version="1.1">
<g id="surface1">
<path style=" stroke:none;fill-rule:nonzero;fill:rgb(0%,0%,0%);fill-opacity:1;" d="M 24.484375 1.625 C 18.578125 3.195312 14.355469 5.632812 9.75 10.292969 C 5.039062 14.949219 2.652344 19.121094 1.082031 25.242188 C -0.867188 32.878906 0.109375 41.167969 3.898438 48.371094 C 6.5 53.355469 12.785156 59.476562 17.929688 61.964844 C 23.507812 64.730469 24.050781 64.566406 24.265625 60.070312 L 24.429688 56.496094 L 21.234375 56.496094 C 17.171875 56.496094 14.949219 55.25 13.269531 51.945312 C 12.566406 50.539062 11.210938 48.804688 10.292969 47.992188 C 8.339844 46.421875 8.613281 45.230469 10.777344 45.769531 C 12.511719 46.203125 13.542969 47.015625 13.324219 47.828125 C 13.269531 48.207031 13.269531 48.261719 13.433594 48.046875 C 13.703125 47.558594 15.167969 48.640625 15.167969 49.398438 C 15.167969 49.671875 14.949219 49.726562 14.625 49.5625 C 14.355469 49.398438 14.082031 49.507812 14.082031 49.832031 C 14.082031 50.210938 14.410156 50.375 14.839844 50.210938 C 15.273438 50.050781 16.035156 50.375 16.519531 50.917969 C 18.632812 53.246094 23.941406 52.921875 24.808594 50.484375 C 25.132812 49.671875 25.511719 48.640625 25.730469 48.152344 C 26 47.449219 25.621094 47.179688 23.832031 46.910156 C 20.582031 46.421875 16.519531 44.199219 14.894531 42.035156 C 11.644531 37.753906 10.941406 30.496094 13.324219 25.457031 C 14.355469 23.347656 14.734375 21.722656 14.679688 19.878906 C 14.570312 18.472656 14.679688 16.574219 14.894531 15.707031 C 15.382812 13.542969 17.226562 13.542969 21.339844 15.652344 C 24.320312 17.171875 24.539062 17.171875 28.492188 16.628906 C 31.363281 16.195312 33.636719 16.195312 36.507812 16.628906 C 40.460938 17.171875 40.679688 17.171875 43.660156 15.652344 C 47.773438 13.542969 49.617188 13.542969 50.105469 15.707031 C 50.320312 16.574219 50.429688 18.472656 50.320312 19.878906 C 50.265625 21.722656 50.644531 23.347656 51.675781 25.457031 C 54.058594 30.496094 53.355469 37.753906 50.105469 42.035156 C 48.425781 44.253906 44.253906 46.476562 40.949219 46.910156 L 38.511719 47.289062 L 39.433594 48.640625 C 40.136719 49.726562 40.410156 51.730469 40.625 56.820312 C 40.949219 65 40.949219 65 47.070312 61.964844 C 52.214844 59.476562 58.5 53.355469 61.101562 48.371094 C 63.375 44.039062 65 37.644531 65 33.042969 C 65 28.4375 63.375 22.046875 61.101562 17.710938 C 58.824219 13.324219 52.214844 6.714844 47.828125 4.441406 C 40.679688 0.703125 32.066406 -0.324219 24.484375 1.625 Z M 24.484375 1.625 "/>
<path style=" stroke:none;fill-rule:nonzero;fill:rgb(0%,0%,0%);fill-opacity:1;" d="M 15.707031 52 C 15.707031 52.269531 15.980469 52.542969 16.25 52.542969 C 16.574219 52.542969 16.792969 52.269531 16.792969 52 C 16.792969 51.675781 16.574219 51.457031 16.25 51.457031 C 15.980469 51.457031 15.707031 51.675781 15.707031 52 Z M 15.707031 52 "/>
<path style=" stroke:none;fill-rule:nonzero;fill:rgb(0%,0%,0%);fill-opacity:1;" d="M 17.875 53.082031 C 17.875 53.355469 18.144531 53.625 18.417969 53.625 C 18.742188 53.625 18.957031 53.355469 18.957031 53.082031 C 18.957031 52.757812 18.742188 52.542969 18.417969 52.542969 C 18.144531 52.542969 17.875 52.757812 17.875 53.082031 Z M 17.875 53.082031 "/>
<path style=" stroke:none;fill-rule:nonzero;fill:rgb(0%,0%,0%);fill-opacity:1;" d="M 23.019531 53.082031 C 22.859375 53.355469 23.074219 53.625 23.5625 53.625 C 24.050781 53.625 24.265625 53.355469 24.105469 53.082031 C 23.941406 52.757812 23.671875 52.542969 23.5625 52.542969 C 23.453125 52.542969 23.183594 52.757812 23.019531 53.082031 Z M 23.019531 53.082031 "/>
<path style=" stroke:none;fill-rule:nonzero;fill:rgb(0%,0%,0%);fill-opacity:1;" d="M 20.582031 53.625 C 20.582031 53.894531 20.855469 54.167969 21.125 54.167969 C 21.449219 54.167969 21.667969 53.894531 21.667969 53.625 C 21.667969 53.300781 21.449219 53.082031 21.125 53.082031 C 20.855469 53.082031 20.582031 53.300781 20.582031 53.625 Z M 20.582031 53.625 "/>
</g>
</svg>
